<svg width="64" height="64" viewBox="0 0 64 64" fill="none" xmlns="http://www.w3.org/2000/svg">
<path fill-rule="evenodd" clip-rule="evenodd" d="M50.6667 10.6666C55.085 10.6666 58.6667 14.2483 58.6667 18.6666V45.3333C58.6667 49.7516 55.085 53.3333 50.6667 53.3333H13.3334C8.9151 53.3333 5.33337 49.7516 5.33337 45.3333V18.6666C5.33337 14.2483 8.9151 10.6666 13.3334 10.6666H50.6667ZM53.3334 19.5412L33.7561 36.6734C32.8344 37.4798 31.4962 37.547 30.5051 36.875L30.244 36.6734L10.6667 19.5439V45.3332C10.6667 46.806 11.8606 47.9999 13.3334 47.9999H50.6667C52.1395 47.9999 53.3334 46.806 53.3334 45.3332V19.5412ZM49.28 15.9999H14.7147L32 31.1232L49.28 15.9999Z" fill="#5253C7"/>
</svg>
