<svg width="64" height="64" viewBox="0 0 64 64" fill="none" xmlns="http://www.w3.org/2000/svg">
<path fill-rule="evenodd" clip-rule="evenodd" d="M18.6633 58.6667C14.2462 58.6667 10.6654 55.085 10.6654 50.6667V34.6667H7.99944C5.62431 34.6667 4.43485 31.7943 6.11431 30.1144L30.108 6.11442C31.1491 5.07302 32.8371 5.07302 33.8782 6.11442L57.8719 30.1144C59.5514 31.7943 58.3619 34.6667 55.9868 34.6667H53.3208V50.6667C53.3208 55.085 49.7401 58.6667 45.323 58.6667H18.6633ZM31.9931 11.7714L14.2668 29.5023C15.2777 29.8813 15.9973 30.8567 15.9973 32.0002V50.6668C15.9973 52.1396 17.1909 53.3335 18.6632 53.3335L23.9952 53.3308L23.9952 42.6668C23.9952 39.7213 26.3824 37.3335 29.3271 37.3335H34.659C37.6038 37.3335 39.991 39.7213 39.991 42.6668L39.991 53.3308L45.3229 53.3335C46.7953 53.3335 47.9889 52.1396 47.9889 50.6668V32.0002C47.9889 30.8567 48.7084 29.8813 49.7193 29.5023L31.9931 11.7714ZM34.6591 42.6668H29.3272L29.3272 53.3308H34.6591L34.6591 42.6668Z" fill="#5253C7"/>
</svg>
