<svg width="64" height="64" viewBox="0 0 64 64" fill="none" xmlns="http://www.w3.org/2000/svg">
<path fill-rule="evenodd" clip-rule="evenodd" d="M43.3395 17.8385C43.3395 16.2744 44.5916 15.005 46.1518 15.005H46.1801C47.7431 15.005 49.0065 16.2744 49.0065 17.8385C49.0065 19.4026 47.7431 20.672 46.1801 20.672C44.6199 20.672 43.3395 19.4026 43.3395 17.8385ZM24.5358 28.0618C22.8839 31.343 23.5186 35.2957 26.1169 37.894C28.7152 40.4924 32.668 41.1327 35.9492 39.4751C39.2332 37.8232 41.075 34.2728 40.5366 30.6374C39.9841 26.9057 37.1052 24.0269 33.3763 23.4744C32.9541 23.412 32.5348 23.3837 32.1183 23.3837C28.9419 23.3837 25.9951 25.1574 24.5358 28.0618ZM43.3389 3.67102C52.715 3.67102 60.3399 11.296 60.3399 20.672V43.34C60.3399 52.7161 52.8825 60.341 43.3389 60.341H20.6709C11.2977 60.341 3.66992 52.7161 3.66992 43.34V20.672C3.66992 11.296 11.2977 3.67102 20.6709 3.67102H43.3389ZM43.3389 9.33802H20.6709C14.4231 9.33802 9.33692 14.4213 9.33692 20.672V43.34C9.33692 49.5907 14.4231 54.674 20.6709 54.674H43.3389C49.5896 54.674 54.6729 49.5907 54.6729 43.34V20.672C54.6729 14.4213 49.5896 9.33802 43.3389 9.33802ZM34.2066 17.8697C40.4233 18.7906 45.2204 23.5877 46.1413 29.8072C47.0395 35.8652 43.968 41.7844 38.4993 44.5386C36.4705 45.5587 34.2859 46.0573 32.1239 46.0573C28.4545 46.0573 24.8362 44.6264 22.1103 41.9006C17.7779 37.571 16.7182 30.986 19.4723 25.5116C22.2265 20.043 28.1315 16.9715 34.2066 17.8697Z" fill="#5253C7"/>
</svg>
