<svg width="64" height="64" viewBox="0 0 64 64" fill="none" xmlns="http://www.w3.org/2000/svg">
<path fill-rule="evenodd" clip-rule="evenodd" d="M54.2113 5.33435C56.6719 5.33435 58.6667 7.32774 58.6667 9.78979V54.2123C58.6667 56.6729 56.6733 58.6677 54.2113 58.6677H9.78881C7.32814 58.6677 5.33337 56.6743 5.33337 54.2123V9.78979C5.33337 7.32912 7.32677 5.33435 9.78881 5.33435H54.2113ZM41.3834 25.3344C37.5983 25.3344 35.0084 27.0073 33.8552 28.951L33.6667 29.2966V25.6677H26.4445V51.2232H34.2223V38.8444C34.2223 34.6955 35.75 32.0566 39.4223 32.0566C41.9549 32.0566 43.0176 34.2961 43.1052 38.289L43.1112 38.8444V51.2232H50.8889V37.1088C50.8889 29.4877 49.0656 25.3344 41.3834 25.3344ZM20.8889 25.3344H13.1112V50.8899H20.8889V25.3344ZM17 12.001C14.2389 12.001 12 14.2399 12 17.001C12 19.7621 14.2389 22.001 17 22.001C19.7612 22.001 22 19.7621 22 17.001C22 14.2399 19.7612 12.001 17 12.001Z" fill="#5253C7"/>
</svg>
