<svg width="64" height="64" viewBox="0 0 64 64" fill="none" xmlns="http://www.w3.org/2000/svg">
<path d="M44.2667 58.6668C41.3334 58.6668 31.7334 57.6001 18.6667 45.3335C6.40004 33.8668 5.33337 21.3335 5.33337 19.7335C5.33337 17.8668 5.60004 10.9335 14.4 6.13346C15.7334 5.60013 18.9334 4.53346 20.5334 6.40013C21.0667 6.93346 27.4667 17.6001 27.4667 17.6001C27.7334 18.4001 28 18.9335 28 19.7335C28 20.8001 27.4667 22.1335 26.4 23.2001C25.6 24.0001 24.8 24.8001 24 25.3335C23.4667 25.8668 22.6667 26.4001 22.1334 26.9335C22.4 28.0001 23.7334 30.9335 28.5334 35.2001C33.3334 39.4668 36.2667 41.3335 37.3334 41.8668C37.6 41.6001 38.1334 40.8001 38.6667 40.2668C39.7334 38.9335 40.2667 38.1335 40.8 37.6001C42.6667 35.7335 44.5334 35.4668 46.4 36.5335C46.4 36.5335 57.0667 42.6668 57.6 43.2001C59.4667 45.0668 58.4 48.2668 57.8667 49.3335C54.9334 56.8001 47.7334 58.6668 44.2667 58.6668ZM17.3334 10.6668H17.0667C10.9334 14.1335 10.6667 17.8668 10.6667 19.4668C10.6667 20.5335 11.7334 31.4668 22.4 41.6001C34.4 52.8001 42.6667 53.3335 44.2667 53.3335C44.5334 53.3335 50.6667 53.3335 53.0667 47.2001C53.0667 46.9335 53.0667 46.9335 53.3334 46.6668C51.2 45.3335 46.1334 42.4001 44.5334 41.6001C44.2667 41.8668 43.4667 42.9335 42.9334 43.7335C42.1334 44.5335 41.6 45.6001 41.0667 45.8668C40 46.9335 38.4 48.2668 36 47.2001C34.9334 46.6668 31.2 44.5335 25.0667 39.2001C17.6 32.8001 16.8 28.2668 16.5334 26.6668C16.5334 25.0668 17.6 23.7335 18.4 23.2001C19.2 22.4001 20 21.8668 20.8 21.0668C21.3334 20.5335 21.8667 20.0001 22.4 19.4668C21.6 17.8668 18.6667 12.8001 17.3334 10.6668Z" fill="#5253C7"/>
</svg>
