<svg width="64" height="64" viewBox="0 0 64 64" fill="none" xmlns="http://www.w3.org/2000/svg">
<path d="M49.1944 16.206C48.828 16.02 48.4713 15.816 48.1256 15.595C47.1205 14.9422 46.1989 14.1731 45.3807 13.3042C43.3336 11.0034 42.569 8.66933 42.2874 7.03514H42.2987C42.0635 5.67867 42.1608 4.80103 42.1755 4.80103H32.8515V40.2157C32.8515 40.6912 32.8515 41.1611 32.8312 41.6255C32.8312 41.6833 32.8255 41.7366 32.8221 41.7988C32.8221 41.8244 32.8221 41.851 32.8165 41.8777C32.8165 41.8844 32.8165 41.891 32.8165 41.8977C32.7182 43.1684 32.3035 44.3958 31.6089 45.4721C30.9143 46.5484 29.9611 47.4406 28.8331 48.0701C27.6575 48.7271 26.3278 49.0717 24.9753 49.0699C20.6311 49.0699 17.1103 45.5905 17.1103 41.2933C17.1103 36.9962 20.6311 33.5167 24.9753 33.5167C25.7976 33.516 26.6149 33.6431 27.3967 33.8933L27.408 24.5681C25.0345 24.2669 22.6231 24.4522 20.3261 25.1122C18.0292 25.7723 15.8963 26.8928 14.0623 28.403C12.4552 29.7746 11.1041 31.4111 10.0699 33.239C9.67626 33.9056 8.19126 36.584 8.01144 40.9312C7.89834 43.3986 8.65271 45.9549 9.01237 47.0114V47.0336C9.23857 47.6557 10.1151 49.7787 11.5435 51.5685C12.6954 53.0041 14.0563 54.2652 15.5823 55.3112V55.289L15.6049 55.3112C20.1188 58.3241 25.1234 58.1264 25.1234 58.1264C25.9898 58.0919 28.8919 58.1264 32.1876 56.5922C35.843 54.8913 37.924 52.3572 37.924 52.3572C39.2535 50.8431 40.3107 49.1176 41.0501 47.2547C41.8938 45.0761 42.1755 42.4632 42.1755 41.4189V22.6306C42.2886 22.6972 43.795 23.676 43.795 23.676C43.795 23.676 45.9654 25.0424 49.3516 25.9323C51.781 26.5655 55.0541 26.6989 55.0541 26.6989V17.6069C53.9073 17.7291 51.5786 17.3736 49.1944 16.206Z" fill="#5253C7"/>
</svg>
