<svg width="64" height="64" viewBox="0 0 64 64" fill="none" xmlns="http://www.w3.org/2000/svg">
<path fill-rule="evenodd" clip-rule="evenodd" d="M14.6358 44.0772C15.4557 45.2457 15.773 46.6941 15.5167 48.0983L14.901 51.4723L19.0263 50.4341C20.233 50.1304 21.5079 50.2582 22.6303 50.7954C27.3049 53.0326 32.6303 53.5173 37.6678 52.2165C42.7596 50.7711 47.0793 47.7251 49.8565 43.4966L49.8814 43.459C52.7363 39.1914 53.851 34.016 53.1114 28.8875C52.3788 23.808 49.8144 19.1714 45.8442 15.763C41.9392 12.4106 36.9054 10.6213 31.6497 10.6676C26.5007 10.7781 21.57 12.6984 17.6719 16.1826C13.7861 19.7796 11.3501 24.4611 10.774 29.5432C10.2579 34.6109 11.6141 39.7712 14.6358 44.0772ZM5.47122 28.9727C6.19434 22.526 9.28401 16.6654 14.0829 12.2373C18.9475 7.87439 25.1268 5.46501 31.5691 5.33477C38.0771 5.26965 44.388 7.48368 49.3183 11.7164C54.2486 15.9491 57.4698 21.7446 58.3901 28.1262C59.3104 34.5078 57.9299 41.0196 54.3143 46.4245C50.7645 51.8293 45.3083 55.6062 39.0632 57.3643C32.8181 58.9923 26.1786 58.4062 20.3279 55.6061L8.16647 58.6667L10.2701 47.1408C6.52303 41.8011 4.81384 35.3543 5.47122 28.9727Z" fill="#5253C7"/>
<path d="M44.4119 38.1502C43.2304 37.4029 40.432 35.7837 39.5614 35.3477C38.1933 34.6004 37.0117 35.9082 36.3898 37.0292C36.0167 37.4029 35.4571 38.337 35.0217 38.3993C33.5293 37.8388 25.6316 31.7357 25.6316 28.9955C26.3778 28.1236 27.435 27.4386 28.1812 26.5667C28.7409 26.0062 28.9275 25.1343 28.5544 24.387C28.1191 23.4529 26.5022 20.7127 25.756 19.5294C25.2585 18.7198 23.9526 18.4084 23.0819 18.9066C20.1592 20.5258 18.6667 22.7055 18.6667 25.2589C18.6667 25.3212 18.8533 32.1716 25.5694 38.5239C33.9024 45.9971 41.4891 48.1145 45.096 40.8281C45.5934 39.894 45.2825 38.6484 44.4119 38.1502Z" fill="#5253C7"/>
</svg>
