<svg width="64" height="64" viewBox="0 0 64 64" fill="none" xmlns="http://www.w3.org/2000/svg">
<path d="M57.2389 19.9335C56.4726 17.0954 54.2352 14.858 51.3971 14.0917C47.4004 13.0313 33.2649 13.0006 31.665 13.0006C30.0651 13.0006 15.9296 13.0313 11.9268 14.0917C9.09476 14.858 6.85736 17.0954 6.09112 19.9335C5.01226 24.0038 5 31.9297 5 32.2668C5 32.604 5.01226 40.5912 6.09112 44.6063C6.85736 47.4383 9.09476 49.6757 11.9329 50.4419C15.9296 51.4963 30.0651 51.5269 31.665 51.5269C33.2649 51.5269 47.4004 51.4963 51.4032 50.4358C54.2352 49.6696 56.4726 47.4322 57.2389 44.594C58.3177 40.5299 58.33 32.604 58.33 32.2668C58.33 31.9297 58.3177 23.9731 57.2389 19.9335ZM53.0951 43.4845C52.7334 44.827 51.63 45.9304 50.2937 46.292C47.3636 47.0644 35.8517 47.236 31.6589 47.236C27.466 47.236 15.9602 47.0644 13.0363 46.292C11.6938 45.9304 10.5905 44.827 10.2288 43.4845C9.45643 40.6096 9.28479 34.4062 9.28479 32.2607C9.28479 32.1871 9.29705 24.5554 10.2288 21.043C10.5905 19.7006 11.6938 18.5972 13.0302 18.2355C15.9602 17.4632 27.4722 17.2915 31.665 17.2915C35.8578 17.2915 47.3698 17.4632 50.2876 18.2355C51.63 18.5972 52.7334 19.7006 53.0951 21.043C53.8674 23.9425 54.0391 30.1275 54.0391 32.2668C54.0391 32.3404 54.0268 39.9721 53.0951 43.4845Z" fill="#5253C7"/>
<path d="M26.7491 39.6653L39.5177 32.3217L26.7491 24.9168V39.6653Z" fill="#5253C7"/>
</svg>
